<svg width="49" height="48" viewBox="0 0 49 48" fill="none" xmlns="http://www.w3.org/2000/svg">
<g clip-path="url(#clip0_228_1737)">
<path d="M48.1986 24C48.1986 10.7452 37.4509 0 24.193 0C10.9351 0 0.1875 10.7452 0.1875 24C0.1875 35.9789 8.96593 45.908 20.4422 47.7084V30.9375H14.347V24H20.4422V18.7125C20.4422 12.6975 24.0261 9.375 29.5094 9.375C32.135 9.375 34.883 9.84375 34.883 9.84375V15.75H31.856C28.8741 15.75 27.9439 17.6002 27.9439 19.5V24H34.6017L33.5374 30.9375H27.9439V47.7084C39.4201 45.908 48.1986 35.9789 48.1986 24Z" fill="white"/>
</g>
<defs>
<clipPath id="clip0_228_1737">
<rect width="48.0111" height="48" fill="white" transform="translate(0.1875)"/>
</clipPath>
</defs>
</svg>
