<svg width="49" height="48" viewBox="0 0 49 48" fill="none" xmlns="http://www.w3.org/2000/svg">
<path d="M15.4009 17.3479C18.4142 25.5665 21.5339 28.8456 29.4701 32.3383L26.0307 37.1675C16.9175 32.8054 12.3783 25.4524 10.2405 19.7143L15.4009 17.3479Z" fill="white"/>
<path d="M17.9242 6.00181C19.5356 5.99551 20.7607 7.33598 20.6509 8.85385C20.478 11.2425 20.6621 12.9658 21.1576 15.102C21.4298 16.2754 20.814 17.4671 19.8354 18.2347C18.5165 19.2693 17.5088 20.5877 16.7079 21.7225C15.5979 23.2955 11.7779 23.1825 10.9331 21.4689C9.19685 17.9472 8.02023 11.459 10.5556 7.07543C10.9538 6.38688 11.7557 6.02592 12.5866 6.02268L17.9242 6.00181Z" fill="white"/>
<path d="M42.385 32.0624C42.5854 30.5528 41.3233 29.2432 39.7142 29.1637C37.182 29.0384 35.3921 28.6587 33.2057 27.9373C32.0047 27.5411 30.6776 27.9749 29.7529 28.7999C28.5064 29.9118 26.9991 30.6977 25.7096 31.3119C23.9223 32.1632 23.5817 35.7575 25.2818 36.7555C28.7758 38.8064 35.4561 40.6896 40.37 38.8402C41.1419 38.5497 41.6178 37.8415 41.7211 37.0631L42.385 32.0624Z" fill="white"/>
</svg>
