<svg width="49" height="48" viewBox="0 0 49 48" fill="none" xmlns="http://www.w3.org/2000/svg">
<g clip-path="url(#clip0_228_1735)">
<path d="M24.2301 4.32187C30.6441 4.32187 31.4037 4.35 33.9261 4.4625C36.2704 4.56562 37.5363 4.95938 38.3803 5.2875C39.4962 5.71875 40.3026 6.24375 41.1372 7.07812C41.9811 7.92188 42.4968 8.71875 42.9282 9.83438C43.2564 10.6781 43.6502 11.9531 43.7534 14.2875C43.8659 16.8187 43.894 17.5781 43.894 23.9813C43.894 30.3938 43.8659 31.1531 43.7534 33.675C43.6502 36.0188 43.2564 37.2844 42.9282 38.1281C42.4968 39.2438 41.9717 40.05 41.1372 40.8844C40.2932 41.7281 39.4962 42.2438 38.3803 42.675C37.5363 43.0031 36.261 43.3969 33.9261 43.5C31.3943 43.6125 30.6347 43.6406 24.2301 43.6406C17.8162 43.6406 17.0566 43.6125 14.5342 43.5C12.1899 43.3969 10.9239 43.0031 10.08 42.675C8.96412 42.2438 8.15769 41.7188 7.32312 40.8844C6.47917 40.0406 5.96343 39.2438 5.53208 38.1281C5.20388 37.2844 4.81004 36.0094 4.70689 33.675C4.59437 31.1438 4.56623 30.3844 4.56623 23.9813C4.56623 17.5688 4.59437 16.8094 4.70689 14.2875C4.81004 11.9437 5.20388 10.6781 5.53208 9.83438C5.96343 8.71875 6.48855 7.9125 7.32312 7.07812C8.16706 6.23438 8.96412 5.71875 10.08 5.2875C10.9239 4.95938 12.1992 4.56562 14.5342 4.4625C17.0566 4.35 17.8162 4.32187 24.2301 4.32187ZM24.2301 0C17.713 0 16.8972 0.028125 14.3372 0.140625C11.7866 0.253125 10.0331 0.665625 8.51402 1.25625C6.92928 1.875 5.58835 2.69062 4.25679 4.03125C2.91585 5.3625 2.10004 6.70313 1.48115 8.27813C0.890388 9.80625 0.477793 11.55 0.365267 14.1C0.252741 16.6687 0.224609 17.4844 0.224609 24C0.224609 30.5156 0.252741 31.3312 0.365267 33.8906C0.477793 36.4406 0.890388 38.1938 1.48115 39.7125C2.10004 41.2969 2.91585 42.6375 4.25679 43.9688C5.58835 45.3 6.92928 46.125 8.50464 46.7344C10.0331 47.325 11.7773 47.7375 14.3279 47.85C16.8878 47.9625 17.7036 47.9906 24.2208 47.9906C30.7379 47.9906 31.5537 47.9625 34.1137 47.85C36.6643 47.7375 38.4178 47.325 39.9369 46.7344C41.5122 46.125 42.8532 45.3 44.1847 43.9688C45.5163 42.6375 46.3415 41.2969 46.951 39.7219C47.5418 38.1938 47.9544 36.45 48.0669 33.9C48.1794 31.3406 48.2075 30.525 48.2075 24.0094C48.2075 17.4938 48.1794 16.6781 48.0669 14.1188C47.9544 11.5688 47.5418 9.81563 46.951 8.29688C46.3602 6.70312 45.5444 5.3625 44.2035 4.03125C42.8719 2.7 41.531 1.875 39.9556 1.26562C38.4272 0.675 36.683 0.2625 34.1324 0.15C31.5631 0.028125 30.7473 0 24.2301 0Z" fill="white"/>
<path d="M24.2304 11.6719C17.4226 11.6719 11.8994 17.1938 11.8994 24C11.8994 30.8062 17.4226 36.3281 24.2304 36.3281C31.0382 36.3281 36.5613 30.8062 36.5613 24C36.5613 17.1938 31.0382 11.6719 24.2304 11.6719ZM24.2304 31.9969C19.8137 31.9969 16.2317 28.4156 16.2317 24C16.2317 19.5844 19.8137 16.0031 24.2304 16.0031C28.647 16.0031 32.2291 19.5844 32.2291 24C32.2291 28.4156 28.647 31.9969 24.2304 31.9969Z" fill="white"/>
<path d="M39.9275 11.1843C39.9275 12.778 38.6335 14.0624 37.0487 14.0624C35.4546 14.0624 34.1699 12.7687 34.1699 11.1843C34.1699 9.59053 35.464 8.30615 37.0487 8.30615C38.6335 8.30615 39.9275 9.5999 39.9275 11.1843Z" fill="white"/>
</g>
<defs>
<clipPath id="clip0_228_1735">
<rect width="48.0111" height="48" fill="white" transform="translate(0.224609)"/>
</clipPath>
</defs>
</svg>
