<svg width="46" height="36" viewBox="0 0 46 36" fill="none" xmlns="http://www.w3.org/2000/svg">
<path fill-rule="evenodd" clip-rule="evenodd" d="M45.0384 1.16539C45.1853 1.04002 45.2701 0.854929 45.2701 0.659834C45.2701 0.295418 44.9798 0 44.6217 0H1.26646C0.710477 0 0.259766 0.458602 0.259766 1.02432C0.259766 1.32883 0.392922 1.61756 0.62311 1.81216L21.7587 19.6808C22.2193 20.0702 22.8877 20.0686 23.3465 19.6771L45.0384 1.16539ZM2.29027 7.04558C1.48307 6.36314 0.259766 6.94724 0.259766 8.01509V34.0336C0.259766 34.7298 0.814403 35.2941 1.49858 35.2941H44.0313C44.7155 35.2941 45.2701 34.7298 45.2701 34.0336V7.50866C45.2701 6.43809 44.0414 5.85491 43.2352 6.54288L23.4872 23.3957L23.3552 23.5084C22.8964 23.8999 22.228 23.9015 21.7674 23.5121L21.6348 23.4L2.29027 7.04558Z" fill="white"/>
</svg>
