<svg width="49" height="48" viewBox="0 0 49 48" fill="none" xmlns="http://www.w3.org/2000/svg">
<g clip-path="url(#clip0_228_1734)">
<path d="M15.3108 43.5C33.4237 43.5 43.3335 28.4934 43.3335 15.4837C43.3335 15.0618 43.3241 14.6306 43.3054 14.2087C45.2331 12.8149 46.8968 11.0885 48.2181 9.1106C46.4227 9.9092 44.5165 10.4308 42.5646 10.6575C44.6198 9.42582 46.1587 7.49094 46.8959 5.21153C44.9624 6.35712 42.848 7.16522 40.6432 7.60122C39.1577 6.02312 37.1935 4.97823 35.0544 4.6281C32.9153 4.27797 30.7204 4.6421 28.8091 5.66419C26.8978 6.68629 25.3764 8.30941 24.4803 10.2826C23.5842 12.2558 23.3632 14.4692 23.8515 16.5806C19.9366 16.3842 16.1066 15.3674 12.6099 13.5962C9.11314 11.825 6.02776 9.33887 3.55374 6.29903C2.29631 8.46649 1.91154 11.0313 2.47762 13.4722C3.04369 15.9131 4.51815 18.0469 6.60132 19.44C5.0374 19.3903 3.50774 18.9694 2.13873 18.2118V18.3337C2.13732 20.6083 2.92385 22.8132 4.36461 24.5735C5.80536 26.3339 7.81143 27.5411 10.0418 27.99C8.59307 28.3863 7.07258 28.444 5.59796 28.1587C6.22733 30.1149 7.45185 31.8258 9.10062 33.0527C10.7494 34.2796 12.7402 34.9612 14.7951 35.0025C11.3064 37.7422 6.99694 39.2283 2.5607 39.2212C1.77397 39.22 0.988009 39.1718 0.207031 39.0768C4.71378 41.9675 9.95634 43.5028 15.3108 43.5Z" fill="white"/>
</g>
<defs>
<clipPath id="clip0_228_1734">
<rect width="48.0111" height="48" fill="white" transform="translate(0.207031)"/>
</clipPath>
</defs>
</svg>
