<svg width="49" height="48" viewBox="0 0 49 48" fill="none" xmlns="http://www.w3.org/2000/svg">
<g clip-path="url(#clip0_228_1736)">
<path d="M47.7731 14.4001C47.7731 14.4001 47.3042 11.0907 45.8601 9.6376C44.0316 7.7251 41.9874 7.71572 41.0496 7.60322C34.3356 7.11572 24.2551 7.11572 24.2551 7.11572H24.2364C24.2364 7.11572 14.1559 7.11572 7.44189 7.60322C6.50418 7.71572 4.45996 7.7251 2.63141 9.6376C1.18733 11.0907 0.727847 14.4001 0.727847 14.4001C0.727847 14.4001 0.240234 18.2907 0.240234 22.172V25.8095C0.240234 29.6907 0.718469 33.5813 0.718469 33.5813C0.718469 33.5813 1.18733 36.8907 2.62203 38.3438C4.45058 40.2563 6.85113 40.1907 7.92013 40.397C11.7648 40.7626 24.2458 40.8751 24.2458 40.8751C24.2458 40.8751 34.3356 40.8563 41.0496 40.3782C41.9874 40.2657 44.0316 40.2563 45.8601 38.3438C47.3042 36.8907 47.7731 33.5813 47.7731 33.5813C47.7731 33.5813 48.2513 29.7001 48.2513 25.8095V22.172C48.2513 18.2907 47.7731 14.4001 47.7731 14.4001ZM19.2852 30.2251V16.7345L32.2539 23.5032L19.2852 30.2251Z" fill="white"/>
</g>
<defs>
<clipPath id="clip0_228_1736">
<rect width="48.0111" height="48" fill="white" transform="translate(0.240234)"/>
</clipPath>
</defs>
</svg>
